<svg width="35" height="36" viewBox="0 0 35 36" fill="none" xmlns="http://www.w3.org/2000/svg">
<path d="M34.9999 17.9999C34.9999 27.6614 27.1614 35.4999 17.4999 35.4999C15.2013 35.5019 12.9248 35.0505 10.8007 34.1717C8.67665 33.293 6.74671 32.004 5.1213 30.3786C3.49589 28.7532 2.20692 26.8232 1.32815 24.6992C0.449369 22.5751 -0.00197291 20.2986 -5.49481e-05 17.9999C-5.49481e-05 8.33848 7.83849 0.499937 17.4999 0.499937C19.7986 0.498019 22.0751 0.949361 24.1992 1.82814C26.3232 2.70692 28.2532 3.99588 29.8786 5.62129C31.504 7.2467 32.793 9.17664 33.6717 11.3007C34.5505 13.4248 35.0019 15.7013 34.9999 17.9999Z" fill="#53354B"/>
<path d="M24.4397 7.43971C24.4397 17.1012 16.6012 24.9397 6.93971 24.9397C4.92378 24.9423 2.92267 24.5953 1.02525 23.9143C0.344242 22.0169 -0.00269163 20.0158 -0.0001386 17.9999C-0.0001386 8.3384 7.8384 0.499861 17.4999 0.499861C19.5158 0.497308 21.5169 0.844242 23.4143 1.52525C24.0953 3.42267 24.4423 5.42378 24.4397 7.43971Z" fill="#63455D"/>
<path d="M21.7392 5.71155L4.28749 23.1633L13.2441 32.1199L30.6958 14.6681L21.7392 5.71155Z" fill="#B3EA90"/>
<path d="M8.05 19.4009C9.04763 20.3989 9.60806 21.7523 9.60806 23.1634C9.60806 24.5745 9.04763 25.9279 8.05 26.9259L4.28386 23.1634L8.05 19.4009Z" fill="#95D677"/>
<path d="M12.5362 25.226C13.2757 25.226 13.8751 24.6266 13.8751 23.8871C13.8751 23.1476 13.2757 22.5481 12.5362 22.5481C11.7967 22.5481 11.1973 23.1476 11.1973 23.8871C11.1973 24.6266 11.7967 25.226 12.5362 25.226Z" fill="#77B12A"/>
<path d="M17.5 22.797C19.6394 22.797 21.3737 21.0627 21.3737 18.9233C21.3737 16.7839 19.6394 15.0496 17.5 15.0496C15.3606 15.0496 13.6263 16.7839 13.6263 18.9233C13.6263 21.0627 15.3606 22.797 17.5 22.797Z" fill="#77B12A"/>
<path d="M22.4638 15.2994C23.2033 15.2994 23.8027 14.6999 23.8027 13.9604C23.8027 13.221 23.2033 12.6215 22.4638 12.6215C21.7243 12.6215 21.1249 13.221 21.1249 13.9604C21.1249 14.6999 21.7243 15.2994 22.4638 15.2994Z" fill="#77B12A"/>
<path d="M17.006 28.3569L13.2435 32.1194L9.47917 28.3578C9.97319 27.8633 10.5598 27.471 11.2055 27.2033C11.8512 26.9356 12.5434 26.7977 13.2424 26.7976C13.9414 26.7976 14.6336 26.9352 15.2794 27.2028C15.9251 27.4703 16.5119 27.8625 17.006 28.3569Z" fill="#95D677"/>
<path d="M21.7392 5.71172L25.5017 9.47422C24.5038 10.4721 23.1504 11.0327 21.7392 11.0327C20.328 11.0327 18.9746 10.4721 17.9767 9.47422L21.7392 5.71172Z" fill="#95D677"/>
<path d="M26.9336 10.9061L30.6952 14.6677L26.9336 18.4302C26.4394 17.9363 26.0474 17.3498 25.78 16.7043C25.5125 16.0588 25.3749 15.3669 25.3749 14.6682C25.3749 13.9695 25.5125 13.2776 25.78 12.6321C26.0474 11.9866 26.4394 11.4001 26.9336 10.9061Z" fill="#95D677"/>
<path d="M29.8321 12.5823H5.15158V25.2488H29.8321V12.5823Z" fill="#B3EA90"/>
<path d="M10.4727 12.5823C10.4727 13.9935 9.91206 15.347 8.91417 16.3449C7.91627 17.3428 6.56282 17.9034 5.15158 17.9034V12.5823H10.4727Z" fill="#77B12A"/>
<path d="M10.4727 20.2659C11.2121 20.2659 11.8116 19.6664 11.8116 18.927C11.8116 18.1875 11.2121 17.588 10.4727 17.588C9.73319 17.588 9.13373 18.1875 9.13373 18.927C9.13373 19.6664 9.73319 20.2659 10.4727 20.2659Z" fill="#77B12A"/>
<path d="M17.4918 22.8007C19.6312 22.8007 21.3655 21.0664 21.3655 18.927C21.3655 16.7876 19.6312 15.0533 17.4918 15.0533C15.3524 15.0533 13.6181 16.7876 13.6181 18.927C13.6181 21.0664 15.3524 22.8007 17.4918 22.8007Z" fill="#77B12A"/>
<path d="M24.5109 20.2659C25.2504 20.2659 25.8499 19.6664 25.8499 18.927C25.8499 18.1875 25.2504 17.588 24.5109 17.588C23.7715 17.588 23.172 18.1875 23.172 18.927C23.172 19.6664 23.7715 20.2659 24.5109 20.2659Z" fill="#77B12A"/>
<path d="M10.4727 25.2488H5.15158V19.9286C5.85031 19.9285 6.54223 20.0661 7.18781 20.3334C7.83339 20.6007 8.41999 20.9925 8.91411 21.4866C9.40823 21.9806 9.80019 22.5671 10.0676 23.2127C10.335 23.8582 10.4727 24.5501 10.4727 25.2488Z" fill="#77B12A"/>
<path d="M29.832 12.5823V17.9034C29.1333 17.9034 28.4414 17.7657 27.7959 17.4983C27.1503 17.2309 26.5638 16.8389 26.0698 16.3448C25.5757 15.8507 25.1839 15.2641 24.9166 14.6185C24.6492 13.9729 24.5117 13.281 24.5118 12.5823H29.832Z" fill="#77B12A"/>
<path d="M29.832 19.9286V25.2488H24.5118C24.5118 23.8378 25.0724 22.4846 26.0701 21.4869C27.0678 20.4892 28.421 19.9286 29.832 19.9286Z" fill="#77B12A"/>
<path d="M13.6263 9.01668C15.2281 9.01668 16.5266 7.71819 16.5266 6.11642C16.5266 4.51465 15.2281 3.21616 13.6263 3.21616C12.0245 3.21616 10.726 4.51465 10.726 6.11642C10.726 7.71819 12.0245 9.01668 13.6263 9.01668Z" fill="#FCC148"/>
<path d="M21.7392 31.8824C23.341 31.8824 24.6394 30.5839 24.6394 28.9821C24.6394 27.3804 23.341 26.0819 21.7392 26.0819C20.1374 26.0819 18.8389 27.3804 18.8389 28.9821C18.8389 30.5839 20.1374 31.8824 21.7392 31.8824Z" fill="#FCC148"/>
<path d="M10.7114 11.916C12.3132 11.916 13.6117 10.6175 13.6117 9.01577C13.6117 7.414 12.3132 6.11551 10.7114 6.11551C9.10968 6.11551 7.81119 7.414 7.81119 9.01577C7.81119 10.6175 9.10968 11.916 10.7114 11.916Z" fill="#FDE79B"/>
</svg>
