<?xml version="1.0" encoding="iso-8859-1"?>
<!-- Generator: Adobe Illustrator 19.0.0, SVG Export Plug-In . SVG Version: 6.00 Build 0)  -->
<svg version="1.1" id="Capa_1" xmlns="http://www.w3.org/2000/svg" xmlns:xlink="http://www.w3.org/1999/xlink" x="0px" y="0px"
	 viewBox="0 0 93.576 93.576" style="enable-background:new 0 0 93.576 93.576;" xml:space="preserve">
<g>
	<path style="fill:#FFE101;" d="M46.783,3C22.641,3,3,22.641,3,46.783C3,70.93,22.641,90.576,46.783,90.576
		c24.147,0,43.793-19.646,43.793-43.793C90.576,22.641,70.931,3,46.783,3z M46.783,81.662c-19.227,0-34.868-15.646-34.868-34.879
		c0-19.226,15.642-34.867,34.868-34.867c19.231,0,34.878,15.642,34.878,34.867C81.661,66.015,66.015,81.662,46.783,81.662z"/>
	<path d="M46.783,0C20.987,0,0,20.987,0,46.783c0,25.802,20.987,46.793,46.783,46.793c25.802,0,46.793-20.991,46.793-46.793
		C93.576,20.987,72.585,0,46.783,0z M46.783,90.576C22.641,90.576,3,70.93,3,46.783C3,22.641,22.641,3,46.783,3
		c24.147,0,43.793,19.641,43.793,43.782C90.576,70.93,70.931,90.576,46.783,90.576z"/>
	<path style="fill:#FFFFFF;" d="M51.519,53.923c0-0.416-0.097-0.572-0.243-0.708c-0.031-0.029-0.096-0.082-0.213-0.153v1.581
		C51.519,54.377,51.519,54.075,51.519,53.923z"/>
	<path style="fill:#FFFFFF;" d="M42.734,38.013v0.104c0,0.35,0.109,0.479,0.212,0.574c0.025,0.022,0.108,0.09,0.298,0.189v-1.604
		c-0.121,0.059-0.188,0.108-0.221,0.137C42.785,37.623,42.734,37.805,42.734,38.013z"/>
	<path style="fill:#FFFFFF;" d="M46.783,14.916c-17.572,0-31.868,14.296-31.868,31.867c0,17.578,14.296,31.879,31.868,31.879
		c17.577,0,31.878-14.301,31.878-31.879C78.661,29.211,64.36,14.916,46.783,14.916z M63.032,53.258c0,1.783-0.126,3.428-0.796,4.887
		c-0.683,1.454-1.537,2.724-2.756,3.787c-1.205,1.045-2.716,1.884-4.377,2.495c-1.246,0.456-2.071,0.793-4.071,1.006v4.885h-8
		v-4.997c-2-0.328-4.439-0.87-6.502-1.614c-2.508-0.901-4.862-2.113-6.93-3.601L28.4,59.254l6.324-9.352l1.247,0.891
		c1.537,1.094,2.986,1.982,4.478,2.641c0.869,0.383,1.583,0.7,2.583,0.949v-3.154c-2-0.431-3.071-0.904-4.419-1.438
		c-1.701-0.667-3.119-1.506-4.294-2.49c-1.211-1.006-1.931-2.22-2.562-3.602c-0.625-1.371-0.726-2.988-0.726-4.809v-0.103
		c0-1.726,0.126-3.336,0.759-4.786c0.623-1.45,1.461-2.748,2.681-3.85c1.184-1.065,2.614-1.934,4.311-2.582
		c1.287-0.492,2.249-0.842,4.249-1.042v-3.21h8v3.414c2,0.284,3.58,0.721,5.092,1.302c1.914,0.741,3.79,1.685,5.413,2.805
		l1.211,0.807l-5.797,9.49l-1.296-0.92c-0.992-0.698-2.072-1.291-3.148-1.76c-0.49-0.212-0.475-0.398-1.475-0.563v2.819
		c2,0.432,3.203,0.924,4.519,1.47c1.677,0.701,3.123,1.549,4.264,2.522c1.21,1.029,1.925,2.265,2.525,3.671
		c0.594,1.402,0.691,3.008,0.691,4.774V53.258z"/>
	<path d="M46.783,11.916c-19.227,0-34.868,15.642-34.868,34.867c0,19.232,15.642,34.879,34.868,34.879
		c19.231,0,34.878-15.646,34.878-34.879C81.661,27.557,66.015,11.916,46.783,11.916z M46.783,78.662
		c-17.572,0-31.868-14.301-31.868-31.879c0-17.571,14.296-31.867,31.868-31.867c17.577,0,31.878,14.296,31.878,31.867
		C78.661,64.361,64.36,78.662,46.783,78.662z"/>
	<path style="fill:#FFE101;" d="M57.889,46.988c-0.906-0.772-2.068-1.458-3.454-2.037c-1.46-0.605-3.237-1.145-5.205-1.602
		l-1.198-0.27v-9.068l1.875,0.426c1.23,0.284,2.527,0.71,3.817,1.266c0.789,0.345,1.571,0.742,2.321,1.19l2.674-4.353
		c-1.101-0.658-2.274-1.229-3.508-1.708c-1.648-0.633-3.672-1.072-5.683-1.304l-1.494-0.153v-3.058h-2v2.968l-1.415,0.097
		c-1.806,0.126-3.434,0.459-4.821,0.99c-1.352,0.516-2.501,1.191-3.407,2.008c-0.895,0.808-1.387,1.754-1.842,2.813
		c-0.47,1.078-0.515,2.285-0.515,3.595v0.103c0,1.388,0.031,2.587,0.477,3.564c0.447,0.981,0.993,1.813,1.872,2.543
		c0.93,0.779,2.062,1.452,3.465,2.002c1.495,0.593,3.149,1.128,5.136,1.594l1.05,0.271v9.178l-1.675-0.308
		c-1.749-0.306-3.43-0.829-5.078-1.555c-1.262-0.557-2.522-1.254-3.803-2.08l-2.959,4.386c1.523,0.959,3.189,1.764,4.956,2.398
		c2.286,0.826,4.672,1.357,7.15,1.627l1.409,0.146v4.662h2v-4.582l1.476-0.126c1.67-0.153,3.279-0.49,4.672-0.999
		c1.314-0.484,2.481-1.139,3.409-1.942c0.9-0.785,1.413-1.724,1.912-2.786c0.482-1.052,0.531-2.275,0.531-3.624v-0.109
		c0-1.362-0.008-2.574-0.443-3.601C59.174,48.577,58.743,47.714,57.889,46.988z M46.032,42.967l-1.787-0.515
		c-1.677-0.455-2.564-0.946-3.225-1.546c-0.781-0.718-0.989-1.68-0.989-2.79v-0.104c0-1.115,0.306-2.104,1.168-2.861
		c0.795-0.688,1.78-1.085,3.389-1.218l1.443-0.134V42.967z M49.704,58.053l-1.671,0.173v-9.329l1.924,0.541
		c1.615,0.458,2.687,0.961,3.355,1.582c0.785,0.732,1.195,1.701,1.195,2.805C54.507,55.279,53.879,57.617,49.704,58.053z"/>
	<path d="M59.834,44.704c-1.142-0.974-2.606-1.821-4.283-2.522c-1.316-0.546-2.519-1.038-4.519-1.47v-2.819
		c1,0.165,0.99,0.352,1.48,0.563c1.075,0.469,2.142,1.062,3.135,1.76l1.316,0.92l5.823-9.49l-1.167-0.807
		c-1.623-1.12-3.581-2.063-5.495-2.805c-1.513-0.581-3.091-1.018-5.091-1.302v-3.414h-8v3.21c-2,0.2-3.011,0.55-4.298,1.042
		c-1.696,0.648-3.166,1.517-4.35,2.582c-1.22,1.102-1.965,2.399-2.588,3.85c-0.633,1.45-0.764,3.061-0.764,4.786v0.103
		c0,1.82,0.122,3.438,0.747,4.809c0.631,1.382,1.469,2.596,2.68,3.602c1.175,0.984,2.502,1.823,4.203,2.49
		c1.348,0.534,2.37,1.008,4.37,1.438v3.154c-1-0.249-1.716-0.566-2.585-0.949c-1.492-0.658-2.985-1.547-4.522-2.641l-1.23-0.891
		l-6.323,9.352l1.189,0.852c2.067,1.487,4.459,2.699,6.966,3.601c2.063,0.744,4.505,1.286,6.505,1.614v4.997h8v-4.885
		c2-0.213,2.878-0.55,4.124-1.006c1.66-0.611,3.168-1.45,4.373-2.495c1.219-1.063,1.996-2.333,2.678-3.787
		c0.67-1.459,0.825-3.104,0.825-4.887v-0.109c0-1.767-0.088-3.372-0.682-4.774C61.75,46.968,61.044,45.733,59.834,44.704z
		 M60.032,53.258c0,1.349-0.035,2.572-0.517,3.624c-0.499,1.063-1.104,2.001-2.004,2.786c-0.928,0.804-2.013,1.458-3.328,1.942
		c-1.393,0.509-3.032,0.846-4.702,0.999l-1.449,0.126v4.582h-2v-4.662l-1.406-0.146c-2.479-0.27-4.827-0.801-7.113-1.627
		c-1.768-0.635-3.445-1.439-4.968-2.398l2.961-4.386c1.281,0.826,2.558,1.523,3.82,2.08c1.648,0.726,3.285,1.249,5.034,1.555
		l1.673,0.308v-9.178l-1.074-0.271c-1.986-0.466-3.707-1.001-5.202-1.594c-1.403-0.55-2.563-1.223-3.493-2.002
		c-0.879-0.729-1.317-1.562-1.764-2.543c-0.446-0.978-0.467-2.177-0.467-3.564v-0.103c0-1.31,0.042-2.517,0.512-3.595
		c0.455-1.059,1.042-2.005,1.937-2.813c0.906-0.816,2.002-1.492,3.354-2.008c1.388-0.531,3.001-0.864,4.807-0.99l1.391-0.097v-2.968
		h2v3.058l1.496,0.153c2.011,0.231,3.952,0.671,5.6,1.304c1.234,0.479,2.452,1.05,3.553,1.708l-2.648,4.353
		c-0.75-0.448-1.512-0.846-2.301-1.19c-1.29-0.556-2.6-0.981-3.83-1.266l-1.869-0.426v9.068l1.198,0.27
		c1.968,0.457,3.726,0.996,5.186,1.602c1.386,0.579,2.557,1.265,3.463,2.037c0.854,0.727,1.29,1.589,1.705,2.561
		c0.435,1.026,0.447,2.238,0.447,3.601V53.258z"/>
	<path d="M49.957,49.438l-1.924-0.541v9.329l1.671-0.173c4.176-0.437,4.807-2.774,4.807-4.229c0-1.104-0.418-2.072-1.203-2.805
		C52.64,50.399,51.572,49.896,49.957,49.438z M51.063,53.062c0.117,0.071,0.182,0.124,0.213,0.153
		c0.146,0.136,0.243,0.292,0.243,0.708c0,0.151,0,0.454-0.456,0.72V53.062z"/>
	<path d="M41.201,35.152c-0.862,0.757-1.168,1.746-1.168,2.861v0.104c0,1.11,0.26,2.072,1.042,2.79
		c0.661,0.6,1.57,1.091,3.246,1.546l1.712,0.515V33.8l-1.443,0.134C42.98,34.067,41.996,34.463,41.201,35.152z M43.244,38.88
		c-0.189-0.1-0.272-0.167-0.298-0.189c-0.103-0.095-0.212-0.225-0.212-0.574v-0.104c0-0.208,0.051-0.391,0.289-0.6
		c0.032-0.028,0.1-0.078,0.221-0.137V38.88z"/>
</g>
<g>
</g>
<g>
</g>
<g>
</g>
<g>
</g>
<g>
</g>
<g>
</g>
<g>
</g>
<g>
</g>
<g>
</g>
<g>
</g>
<g>
</g>
<g>
</g>
<g>
</g>
<g>
</g>
<g>
</g>
</svg>
