<svg width="20" height="20" viewBox="0 0 20 20" fill="none" xmlns="http://www.w3.org/2000/svg">
<path d="M7.35231 19C6.18917 18.7603 5.12315 18.2531 4.00627 17.8797L3.84671 17.8312C3.83052 17.9163 3.8205 17.991 3.80355 18.0642C3.76769 18.2289 3.67504 18.377 3.54084 18.4839C3.40664 18.5909 3.23887 18.6504 3.06512 18.6527C2.63604 18.6597 2.20696 18.6597 1.77788 18.6527C1.67509 18.6527 1.57332 18.6328 1.47858 18.5942C1.38383 18.5555 1.29802 18.4989 1.2262 18.4277C1.15438 18.3564 1.09799 18.2719 1.06036 18.1792C1.02273 18.0865 1.00462 17.9875 1.00709 17.8879C1.00246 17.2083 1.00709 16.5294 1.00709 15.8497C1.00709 14.5263 1.0225 13.2028 1.00015 11.8794C0.990899 11.2924 1.41561 10.9585 1.91586 10.9884C2.25886 11.0078 2.60495 10.9884 2.9495 10.9921C3.49985 10.9921 3.81125 11.2841 3.83438 11.8204C3.83438 11.8436 3.839 11.866 3.84286 11.907L4.62445 11.9683C4.62445 11.6404 4.60287 11.3185 4.62907 11.0011C4.72003 9.87556 5.13395 8.85236 5.73517 7.89637C6.44353 6.76264 7.38468 5.82682 8.44915 5.00153C8.51341 4.95674 8.56616 4.89822 8.60331 4.8305C8.43451 4.84469 8.26416 4.84992 8.0969 4.87456C7.43247 4.97166 6.83202 5.18078 6.44508 5.76632C6.42751 5.79556 6.40394 5.82099 6.37582 5.84105C6.3477 5.8611 6.31563 5.87535 6.2816 5.88291C6.24757 5.89047 6.2123 5.89119 6.17797 5.885C6.14364 5.87882 6.11099 5.86588 6.08203 5.84698C6.05147 5.82859 6.02502 5.80445 6.00426 5.77599C5.9835 5.74752 5.96883 5.71531 5.96115 5.68126C5.95346 5.64721 5.95289 5.61201 5.95949 5.57774C5.96609 5.54347 5.97971 5.51084 5.99955 5.48176C6.2028 5.15071 6.49863 4.88218 6.85283 4.70727C7.32841 4.45781 7.84562 4.35101 8.38055 4.31367C8.44684 4.30919 8.51313 4.30769 8.57942 4.30396C8.58944 4.30396 8.59869 4.29425 8.63415 4.27483C8.3713 3.96414 8.05759 3.76398 7.63982 3.75203C7.38699 3.74456 7.13263 3.76696 6.87981 3.75576C6.4786 3.73059 6.09104 3.60473 5.75521 3.39055C5.58332 3.28673 5.53476 3.14632 5.61647 3.0089C5.69817 2.87147 5.86158 2.83787 6.03964 2.94392C6.42141 3.17653 6.87321 3.27708 7.32148 3.22922C7.90882 3.17171 8.42218 3.32781 8.84766 3.72813C8.93168 3.8073 8.98794 3.7946 9.055 3.71244C8.90084 3.44805 8.74668 3.18964 8.60254 2.91778C8.4268 2.58319 8.26185 2.23963 8.25337 1.85723C8.2488 1.6947 8.2798 1.53307 8.34433 1.38298C8.45918 1.13427 8.69812 1.04614 8.94709 1.17012C9.2161 1.30455 9.43655 1.28065 9.68937 1.12829C9.99769 0.943819 10.3314 0.963985 10.6336 1.15219C10.8779 1.3053 11.0922 1.30157 11.3366 1.15219C11.4825 1.05462 11.6556 1.00237 11.833 1.00237C12.0103 1.00237 12.1834 1.05462 12.3294 1.15219C12.4218 1.21701 12.5314 1.25513 12.6453 1.26213C12.7592 1.26914 12.8728 1.24474 12.973 1.19178C13.3168 1.03195 13.632 1.18058 13.6867 1.55102C13.7279 1.79207 13.7065 2.03925 13.6243 2.27025C13.4085 2.79305 13.1341 3.29569 12.8689 3.83866C12.9827 3.94662 13.0685 4.07921 13.1192 4.22554C13.1698 4.37187 13.1839 4.52775 13.1603 4.68038C13.1557 4.7222 13.2081 4.78121 13.2489 4.81481C13.5256 5.03887 13.8124 5.25696 14.0852 5.48699C14.2664 5.64085 14.2217 5.89553 14.0028 5.94034C13.899 5.94981 13.7954 5.9207 13.7129 5.85893C13.4308 5.64906 13.1626 5.42202 12.8936 5.20617C12.2831 5.54824 11.6241 5.59379 10.9666 5.5796C10.4324 5.56541 9.90057 5.48027 9.36795 5.42575C9.33143 5.42465 9.29583 5.41435 9.26466 5.39587C9.02494 5.2241 8.85845 5.35704 8.67423 5.50492C7.54655 6.40638 6.56609 7.43108 5.88856 8.70224C5.38523 9.64852 5.1008 10.6486 5.14242 11.7226C5.14336 11.8161 5.15291 11.9093 5.17094 12.0011C5.17716 12.0243 5.18881 12.0458 5.20498 12.064C5.22116 12.0821 5.24142 12.0964 5.26421 12.1057C5.90475 12.261 6.48207 12.5538 7.03705 12.8884C7.61207 13.2372 8.25337 13.3134 8.9047 13.3798C9.68552 13.4598 10.4687 13.5292 11.2433 13.6472C12.1182 13.7794 12.6762 14.4568 12.6739 15.3105C12.6739 15.3628 12.6739 15.4151 12.6739 15.492C12.7387 15.4711 12.7872 15.4591 12.8327 15.4397C13.8604 15.002 14.8882 14.5624 15.9159 14.1207C16.0067 14.0795 16.084 14.0149 16.1394 13.934C16.7314 13.0333 16.9164 12.0385 16.8023 10.9914C16.6273 9.37815 15.8296 8.04799 14.745 6.85599C14.7032 6.81389 14.6636 6.76977 14.6263 6.7238C14.6043 6.6976 14.5878 6.66742 14.5778 6.635C14.5679 6.60258 14.5647 6.56857 14.5684 6.53494C14.5721 6.50131 14.5827 6.46874 14.5995 6.4391C14.6164 6.40947 14.6391 6.38337 14.6664 6.36232C14.6909 6.34057 14.7195 6.32373 14.7507 6.31274C14.7819 6.30176 14.8151 6.29686 14.8482 6.29832C14.8814 6.29977 14.9139 6.30756 14.944 6.32124C14.974 6.33491 15.001 6.3542 15.0233 6.378C15.1543 6.50721 15.2769 6.64463 15.3964 6.78429C16.2759 7.81198 16.9434 8.9502 17.2316 10.2654C17.4791 11.3984 17.4213 12.5105 16.9434 13.586C16.9326 13.6114 16.9264 13.639 16.9102 13.692C17.086 13.6174 17.2363 13.5516 17.392 13.4964C18.1258 13.2365 18.8018 13.571 18.9706 14.2753C19.0237 14.4964 19.0046 14.7279 18.9159 14.938C18.8273 15.1481 18.6734 15.3263 18.4757 15.4479L13.5642 18.4645C13.1392 18.7358 12.6555 18.9088 12.1505 18.9701C12.1216 18.9763 12.0934 18.9856 12.0665 18.9978L7.35231 19ZM3.82821 12.45C3.82821 12.6845 3.82821 12.8981 3.82821 13.1162C3.82821 13.3343 3.71953 13.4545 3.54379 13.4486C3.36804 13.4426 3.28557 13.3291 3.2848 13.1147C3.2848 12.6927 3.2848 12.2715 3.2848 11.8495C3.2848 11.6008 3.20309 11.5202 2.95181 11.5194C2.59211 11.5194 2.22957 11.5194 1.86421 11.5194C1.63297 11.5194 1.54665 11.5986 1.54665 11.8241C1.54665 13.8272 1.54665 15.8298 1.54665 17.8319C1.54665 18.0522 1.62373 18.1262 1.85496 18.1307C2.21185 18.1307 2.56795 18.1307 2.92483 18.1307C3.21851 18.1307 3.28788 18.0634 3.28865 17.7811V14.8683C3.28865 14.719 3.2848 14.5756 3.28865 14.4292C3.28677 14.3612 3.31254 14.2952 3.36042 14.2455C3.40829 14.1957 3.47443 14.1662 3.54456 14.1633C3.61485 14.1621 3.683 14.1868 3.73522 14.2324C3.78745 14.278 3.81986 14.3412 3.8259 14.409C3.82975 14.4617 3.82975 14.5147 3.8259 14.5674C3.8259 15.4106 3.8259 16.2538 3.8259 17.097C3.81782 17.1468 3.82967 17.1978 3.85904 17.2394C3.8884 17.281 3.93307 17.3102 3.98391 17.3211C4.85646 17.6295 5.72669 17.9462 6.59615 18.2621C6.9501 18.3986 7.32674 18.4715 7.70765 18.4772C9.0437 18.4742 10.3798 18.4742 11.7158 18.4772C12.2387 18.483 12.7521 18.3422 13.1942 18.0716C14.8581 17.0529 16.521 16.0322 18.1828 15.0095C18.3021 14.9372 18.3909 14.826 18.4333 14.696C18.4756 14.566 18.4688 14.4256 18.4141 14.3C18.3675 14.171 18.2721 14.0639 18.1472 14.0004C18.0223 13.9368 17.8772 13.9217 17.7411 13.9579C17.6186 13.9884 17.4991 14.0296 17.3843 14.0812C15.799 14.7548 14.2135 15.4292 12.6277 16.1044C12.5121 16.1522 12.388 16.1776 12.2623 16.1791C11.3258 16.1858 10.3893 16.1836 9.45274 16.1791C9.37566 16.1791 9.27314 16.1896 9.22612 16.1477C9.1445 16.0799 9.08793 15.9881 9.06502 15.8863C9.04729 15.7653 9.1421 15.6839 9.27237 15.6623C9.33217 15.6549 9.3925 15.6524 9.45274 15.6548H11.9193C11.9833 15.6548 12.048 15.6496 12.1343 15.6458V15.2836C12.1401 15.0083 12.0403 14.7408 11.8542 14.5327C11.6681 14.3247 11.4089 14.1909 11.1269 14.1573C10.3661 14.0677 9.60458 13.9729 8.84072 13.9079C8.0599 13.8422 7.31531 13.6838 6.64086 13.2775C6.45201 13.1633 6.25546 13.0647 6.05428 12.9646C5.36847 12.6151 4.60301 12.4381 3.82821 12.45ZM8.76518 1.68023C8.7991 1.85275 8.79833 2.00586 8.85999 2.12835C9.08429 2.58617 9.33172 3.0328 9.56527 3.48689C9.62925 3.61087 9.73177 3.6512 9.8628 3.67883C10.6461 3.83735 11.457 3.81535 12.2299 3.6146C12.275 3.60295 12.3144 3.57657 12.3417 3.53992C12.65 3.07985 12.9545 2.61381 13.121 2.08129C13.1565 1.93895 13.184 1.79484 13.2034 1.64961C12.7533 1.88561 12.3833 1.81242 12.0249 1.58313C11.9602 1.5432 11.8842 1.52376 11.8076 1.52751C11.7309 1.53125 11.6574 1.558 11.5971 1.60405C11.1901 1.87142 10.7854 1.8662 10.3792 1.60853C10.1996 1.495 10.0293 1.5189 9.85586 1.62795C9.59533 1.79226 9.3163 1.85649 9.01184 1.75342C8.94555 1.73699 8.87772 1.71682 8.76518 1.68023ZM10.8941 5.10833C11.3736 5.03365 11.8569 4.97315 12.3348 4.88427C12.566 4.84245 12.6647 4.6408 12.6053 4.40927C12.5529 4.20388 12.4003 4.12098 12.1644 4.16355C11.9285 4.20612 11.715 4.24795 11.4884 4.27782C10.8462 4.35054 10.1958 4.31031 9.56836 4.15907C9.49286 4.1348 9.4106 4.13975 9.33878 4.17288C9.26696 4.206 9.21113 4.26474 9.18296 4.33682C9.06734 4.58403 9.18296 4.84469 9.45505 4.89324C9.92755 4.97912 10.4047 5.03738 10.8941 5.10833Z" fill="#5B7083" stroke="#5B7083" stroke-width="0.6"/>
<path d="M11.8741 7.67255L11.7636 7.86947L11.8762 7.67367C11.8788 7.67508 11.8814 7.67649 11.884 7.6779C11.8885 7.68194 11.8921 7.68633 11.8948 7.6908C11.8987 7.69734 11.9009 7.70408 11.9016 7.71057L12.1999 7.67829M11.8741 7.67255L11.2764 9.61195C11.3451 9.62138 11.4117 9.63567 11.4757 9.65451L11.5547 9.44014M11.8741 7.67255L11.9104 7.60784C11.9107 7.60801 11.911 7.60818 11.9113 7.60835C11.9137 7.60967 11.916 7.61083 11.9182 7.61185L12.0457 7.42435M11.8741 7.67255C11.7148 7.58714 11.5523 7.51544 11.3691 7.43464C11.3516 7.42693 11.3339 7.41914 11.3161 7.41125C11.2481 7.38122 11.1772 7.3497 11.1025 7.31561L11.9394 7.61836M12.1999 7.67829C12.213 7.88965 11.9686 7.9845 11.7636 7.86948C11.687 7.82542 11.608 7.78508 11.524 7.74395C11.524 7.69608 11.524 7.64781 11.524 7.59912H11.224L11.0921 7.86853C11.139 7.8915 11.1827 7.91262 11.2241 7.93245C11.2242 8.38849 11.2248 8.81274 11.2279 9.23699C11.2339 9.25971 11.2447 9.28096 11.2597 9.29936C11.2747 9.31776 11.2936 9.3329 11.315 9.34379C11.3925 9.38133 11.4726 9.41352 11.5547 9.44014M12.1999 7.67829L11.9004 7.69685C11.9003 7.6944 11.9004 7.69107 11.9009 7.6871C11.9009 7.68709 11.9009 7.68708 11.9009 7.68707L11.2271 7.0427C11.3126 7.08175 11.3962 7.1186 11.4778 7.15462C11.6773 7.24263 11.8658 7.32579 12.0457 7.42435M12.1999 7.67829C12.1944 7.62774 12.1778 7.57892 12.1512 7.53512C12.1246 7.49131 12.0886 7.45354 12.0457 7.42435M11.5547 9.44014L11.4844 9.6571C11.9492 9.79735 12.2773 10.1782 12.3014 10.6776M11.5547 9.44014C12.2176 9.68436 12.5668 10.1549 12.549 10.7763C12.5418 11.0974 12.4318 11.4085 12.2342 11.6664C12.0366 11.9244 11.7612 12.1165 11.446 12.2162L11.3874 11.9771C11.6475 11.8952 11.8769 11.736 12.0421 11.5193C12.0433 11.5177 12.0445 11.5161 12.0457 11.5146C12.2087 11.2987 12.2986 11.0386 12.3032 10.7707C12.3032 10.7702 12.3032 10.7698 12.3032 10.7693C12.3037 10.7388 12.3031 10.7082 12.3014 10.6776M12.3014 10.6776C12.3014 10.6782 12.3014 10.6788 12.3014 10.6793L12.2487 10.6818C12.2486 10.6809 12.2486 10.6799 12.2486 10.679L12.3013 10.6759C12.3013 10.6765 12.3013 10.6771 12.3014 10.6776ZM10.6852 12.6666V12.2879L11.2271 12.27C11.2271 12.317 11.2276 12.3634 11.2282 12.4094C11.2292 12.5 11.2302 12.5888 11.2271 12.677M10.6852 12.6666C10.6899 12.8503 10.7878 12.9564 10.9489 12.9594C11.11 12.9623 11.2186 12.8563 11.2271 12.677M10.6852 12.6666L10.9275 12.6605M10.6852 12.6666H10.9272C10.9263 12.6802 10.924 12.6863 10.9238 12.6868C10.9237 12.6869 10.9259 12.6816 10.9327 12.6748C10.9357 12.6718 10.9388 12.6693 10.9419 12.6671L10.9543 12.6676L10.9678 12.668C10.9723 12.6711 10.9767 12.6749 10.9807 12.6793C10.9882 12.6876 10.9899 12.6934 10.9894 12.6917C10.9887 12.6899 10.9866 12.6827 10.9856 12.6686M11.2271 12.677L10.9856 12.6686M11.2271 12.677L10.9854 12.6656C10.9854 12.6645 10.9853 12.6633 10.9852 12.662V12.6616V12.6609V12.6602V12.6595V12.6587V12.658V12.6573V12.6566V12.6559V12.6552V12.6545V12.6537V12.653V12.6523V12.6516V12.6509V12.6502V12.6495V12.6488V12.648V12.6473V12.6466V12.6459V12.6452V12.6445V12.6438V12.643V12.6423V12.6416V12.6409V12.6402V12.6395V12.6388V12.638V12.6373V12.6366V12.6359V12.6352V12.6345V12.6338V12.6331V12.6323V12.6316V12.6309V12.6302V12.6295V12.6288V12.6281V12.6273V12.6266V12.6259V12.6252V12.6245V12.6238V12.6231V12.6223V12.6216V12.6209V12.6202V12.6195V12.6188V12.6181V12.6173V12.6166V12.6159V12.6152V12.6145V12.6138V12.613V12.6123V12.6116V12.6109V12.6102V12.6095V12.6088V12.608V12.6073V12.6066V12.6059V12.6052V12.6045V12.6037V12.603V12.6023V12.6016V12.6009V12.6002V12.5995V12.5987V12.598V12.5973V12.5966V12.5959V12.5952V12.5944V12.5937V12.593V12.5923V12.5916V12.5909V12.5901V12.5894V12.5887V12.588V12.5873V12.5866V12.5858V12.5851V12.5844V12.5837V12.583V12.5823V12.5815V12.5808V12.5801V12.5794V12.5787V12.5779V12.5772V12.5765V12.5758V12.5751V12.5744V12.5736V12.5729V12.5722V12.5715V12.5708V12.57V12.5693V12.5686V12.5679V12.5672V12.5664V12.5657V12.565V12.5643V12.5636V12.5629V12.5621V12.5614V12.5607V12.56V12.5593V12.5585V12.5578V12.5571V12.5564V12.5557V12.5549V12.5542V12.5535V12.5528V12.552V12.5513V12.5506V12.5499V12.5492V12.5484V12.5477V12.547V12.5463V12.5456V12.5448V12.5441V12.5434V12.5427V12.5419V12.5412V12.5405V12.5398V12.5391V12.5383V12.5376V12.5369V12.5362V12.5354V12.5347V12.534V12.5333V12.5325V12.5318V12.5311V12.5304V12.5296V12.5289V12.5282V12.5275V12.5267V12.526V12.5253V12.5246V12.5238V12.5231V12.5224V12.5217V12.5209V12.5202V12.5195V12.5188V12.518V12.5173V12.5166V12.5159V12.5151V12.5144V12.5137V12.513V12.5122V12.5115V12.5108V12.51V12.5093V12.5086V12.5079V12.5071V12.5064V12.5057V12.505V12.5042V12.5035V12.5028V12.502V12.5013V12.5006V12.4998V12.4991V12.4984V12.4977V12.4969V12.4962V12.4955V12.4947V12.494V12.4933V12.4925V12.4918V12.4911V12.4904V12.4896V12.4889V12.4882V12.4874V12.4867V12.486V12.4852V12.4845V12.4838V12.483V12.4823V12.4816V12.4808V12.4801V12.4794V12.4786V12.4779V12.4772V12.4764V12.4757V12.475V12.4742V12.4735V12.4728V12.472V12.4713V12.4706V12.4698V12.4691V12.4683V12.4676V12.4669V12.4661V12.4654V12.4647V12.4639V12.4632V12.4625V12.4617V12.461V12.4602V12.4595V12.4588V12.458V12.4573V12.4565V12.4558V12.4551V12.4543V12.4536V12.4529V12.4521V12.4514V12.4506V12.4499V12.4492V12.4484V12.4477V12.4469V12.4462V12.4454V12.4447V12.444V12.4432V12.4425V12.4417V12.441V12.4403V12.4395V12.4388V12.438V12.4373V12.4365V12.4358V12.435V12.4343V12.4336V12.4328V12.4321V12.4313V12.4306V12.4298V12.4291V12.4283V12.4276V12.4268V12.4261V12.4254V12.4246V12.4239V12.4231V12.4224V12.4216V12.4209V12.4201V12.4194V12.4186V12.4179V12.4171V12.4164V12.4156V12.4149V12.4141V12.4134V12.4126V12.4119V12.4111V12.4104V12.4096V12.4089V12.4081V12.4074V12.4066V12.4059V12.4051V12.4044V12.4036V12.4029V12.4021V12.4014V12.4006V12.3999V12.3991V12.3983V12.3976V12.3968V12.3961V12.3953V12.3946V12.3938V12.3931V12.3923V12.3915V12.3908V12.39V12.3893V12.3885V12.3878V12.387V12.3862V12.3855V12.3847V12.384V12.3832V12.3825V12.3817V12.3809V12.3802V12.3794V12.3787V12.3779V12.3771V12.3764V12.3756V12.3749V12.3741V12.3733V12.3726V12.3718V12.371V12.3703V12.3695V12.3688V12.368V12.3672V12.3665V12.3657V12.3649V12.3642V12.3634V12.3626V12.3619V12.3611V12.3603V12.3596V12.3588V12.358V12.3573V12.3565V12.3557V12.355V12.3542V12.3534V12.3527V12.3519V12.3511V12.3504V12.3496V12.3488V12.3481V12.3473V12.3465V12.3457V12.345V12.3442V12.3434V12.3427V12.3419V12.3411V12.3403V12.3396V12.3388V12.338V12.3372V12.3365V12.3357V12.3349V12.3341V12.3334V12.3326V12.3318V12.331V12.3303V12.3295V12.3287V12.3279V12.3272V12.3264V12.3256V12.3248V12.324V12.3233V12.3225V12.3217V12.3209V12.3202V12.3194V12.3186V12.3178V12.317V12.3162V12.3155V12.3147V12.3139V12.3131V12.3123V12.3116V12.3108V12.31V12.3092V12.3084V12.3076V12.3069V12.3061V12.3053V12.3045V12.3037V12.3029V12.3021V12.3014V12.3006V12.2998V12.299V12.2982V12.2974V12.2966V12.2958V12.295V12.2943V12.2935V12.2927V12.2919V12.2911V12.2903V12.2895V12.2887V12.2879V12.27L10.9856 12.6686M10.9856 12.6686L10.9275 12.6605M10.9275 12.6605C10.9301 12.581 10.9292 12.5057 10.9283 12.4222C10.9278 12.3801 10.9272 12.3358 10.9271 12.2879C10.9271 12.282 10.9271 12.276 10.9271 12.27V12.0506L10.6942 12.0495L10.6869 12.0494C10.352 12.0479 10.0244 11.9498 9.74572 11.7669C9.74383 11.7658 9.74198 11.7647 9.74015 11.7636C9.73988 11.7635 9.73961 11.7633 9.73934 11.7632C9.71314 11.7483 9.69419 11.7407 9.68221 11.7372C9.67453 11.7349 9.67099 11.7346 9.67099 11.7346C9.67099 11.7346 9.67286 11.7347 9.67637 11.7344C9.68623 11.7335 9.69842 11.7296 9.70875 11.7229C9.70977 11.7222 9.71067 11.7216 9.71148 11.721C9.7118 11.7208 9.7121 11.7206 9.71239 11.7203L10.9275 12.6605ZM12.0457 7.42435L11.9394 7.61836M11.9394 7.61836C11.946 7.61926 11.9495 7.61859 11.9496 7.61874C11.9496 7.61881 11.9488 7.61906 11.9473 7.61971C11.9446 7.62084 11.9399 7.62328 11.9343 7.62765M10.9356 9.56519V9.58482C10.9298 9.57216 10.9234 9.55952 10.9163 9.54695C10.8463 9.42339 10.7367 9.35195 10.6236 9.30894C10.6177 9.30652 10.6119 9.30407 10.6061 9.30159L10.6752 9.05849H10.9267C10.9271 9.11878 10.9275 9.17898 10.9279 9.23919L10.9282 9.2769L10.9378 9.31337C10.9548 9.37796 10.9855 9.43773 11.0272 9.48896C11.0616 9.53112 11.1028 9.56669 11.1488 9.59445L10.9356 9.56519ZM10.8314 7.37707L10.924 7.34552V7.36644L10.8314 7.37707Z" fill="#5B7083" stroke="#5B7083" stroke-width="0.6"/>
</svg>
