<svg width="20" height="20" viewBox="0 0 20 20" fill="none" xmlns="http://www.w3.org/2000/svg">
<path d="M7.35231 19C6.18917 18.7603 5.12315 18.2531 4.00627 17.8797L3.84671 17.8312C3.83052 17.9163 3.8205 17.991 3.80355 18.0642C3.76769 18.2289 3.67504 18.377 3.54084 18.4839C3.40664 18.5909 3.23887 18.6504 3.06512 18.6527C2.63604 18.6597 2.20696 18.6597 1.77789 18.6527C1.67509 18.6527 1.57332 18.6328 1.47858 18.5942C1.38383 18.5555 1.29802 18.4989 1.2262 18.4277C1.15438 18.3564 1.09799 18.2719 1.06036 18.1792C1.02273 18.0865 1.00462 17.9875 1.00709 17.8879C1.00246 17.2083 1.00709 16.5294 1.00709 15.8497C1.00709 14.5263 1.0225 13.2028 1.00015 11.8794C0.990899 11.2924 1.41561 10.9585 1.91586 10.9884C2.25886 11.0078 2.60495 10.9884 2.9495 10.9921C3.49985 10.9921 3.81125 11.2841 3.83438 11.8204C3.83438 11.8436 3.839 11.866 3.84286 11.907L4.62445 11.9683C4.62445 11.6404 4.60287 11.3185 4.62907 11.0011C4.72003 9.87556 5.13395 8.85236 5.73517 7.89637C6.44353 6.76264 7.38468 5.82682 8.44915 5.00153C8.51341 4.95674 8.56616 4.89822 8.60331 4.8305C8.43451 4.84469 8.26416 4.84992 8.0969 4.87456C7.43247 4.97166 6.83202 5.18078 6.44508 5.76632C6.42751 5.79556 6.40394 5.82099 6.37582 5.84105C6.3477 5.8611 6.31563 5.87535 6.2816 5.88291C6.24757 5.89047 6.2123 5.89119 6.17797 5.885C6.14364 5.87882 6.11099 5.86588 6.08203 5.84698C6.05147 5.82859 6.02502 5.80445 6.00426 5.77599C5.9835 5.74752 5.96883 5.71531 5.96114 5.68126C5.95346 5.64721 5.95289 5.61201 5.95949 5.57774C5.96609 5.54347 5.97971 5.51084 5.99955 5.48176C6.2028 5.15071 6.49863 4.88218 6.85283 4.70727C7.32841 4.45781 7.84562 4.35101 8.38055 4.31367C8.44684 4.30919 8.51313 4.30769 8.57942 4.30396C8.58944 4.30396 8.59869 4.29425 8.63415 4.27483C8.3713 3.96414 8.05759 3.76398 7.63982 3.75203C7.38699 3.74456 7.13263 3.76696 6.87981 3.75576C6.4786 3.73059 6.09104 3.60473 5.75521 3.39055C5.58332 3.28673 5.53476 3.14632 5.61647 3.0089C5.69817 2.87147 5.86158 2.83787 6.03964 2.94392C6.42141 3.17653 6.87321 3.27708 7.32148 3.22922C7.90882 3.17171 8.42218 3.32781 8.84766 3.72813C8.93167 3.8073 8.98794 3.7946 9.055 3.71244C8.90084 3.44805 8.74668 3.18964 8.60254 2.91778C8.4268 2.58319 8.26185 2.23963 8.25337 1.85723C8.2488 1.6947 8.2798 1.53307 8.34433 1.38298C8.45918 1.13427 8.69812 1.04614 8.94709 1.17012C9.2161 1.30455 9.43655 1.28065 9.68937 1.12829C9.99769 0.943819 10.3314 0.963985 10.6336 1.15219C10.8779 1.3053 11.0922 1.30157 11.3366 1.15219C11.4825 1.05462 11.6556 1.00237 11.833 1.00237C12.0103 1.00237 12.1834 1.05462 12.3294 1.15219C12.4218 1.21701 12.5314 1.25513 12.6453 1.26213C12.7592 1.26914 12.8728 1.24474 12.973 1.19178C13.3168 1.03195 13.632 1.18058 13.6867 1.55102C13.7279 1.79207 13.7065 2.03925 13.6243 2.27025C13.4085 2.79305 13.1341 3.29569 12.8689 3.83866C12.9827 3.94662 13.0685 4.07921 13.1192 4.22554C13.1698 4.37187 13.1839 4.52775 13.1603 4.68038C13.1557 4.7222 13.2081 4.78121 13.2489 4.81481C13.5256 5.03887 13.8124 5.25696 14.0852 5.48699C14.2664 5.64085 14.2217 5.89553 14.0028 5.94034C13.899 5.94981 13.7954 5.9207 13.7129 5.85893C13.4308 5.64906 13.1626 5.42202 12.8936 5.20617C12.2831 5.54823 11.6241 5.59379 10.9666 5.5796C10.4324 5.56541 9.90057 5.48027 9.36795 5.42575C9.33143 5.42465 9.29583 5.41435 9.26466 5.39587C9.02494 5.2241 8.85845 5.35704 8.67423 5.50492C7.54655 6.40638 6.56609 7.43108 5.88856 8.70224C5.38523 9.64852 5.1008 10.6486 5.14243 11.7226C5.14336 11.8161 5.15291 11.9093 5.17094 12.0011C5.17716 12.0243 5.18881 12.0458 5.20498 12.064C5.22116 12.0821 5.24142 12.0964 5.26421 12.1057C5.90475 12.261 6.48207 12.5538 7.03705 12.8884C7.61207 13.2372 8.25337 13.3134 8.9047 13.3798C9.68552 13.4598 10.4687 13.5292 11.2433 13.6472C12.1182 13.7794 12.6762 14.4568 12.6739 15.3105C12.6739 15.3628 12.6739 15.4151 12.6739 15.492C12.7387 15.4711 12.7872 15.4591 12.8327 15.4397C13.8604 15.002 14.8882 14.5624 15.9159 14.1207C16.0067 14.0795 16.084 14.0149 16.1394 13.934C16.7314 13.0333 16.9164 12.0385 16.8023 10.9914C16.6273 9.37815 15.8296 8.04799 14.745 6.85599C14.7032 6.81389 14.6636 6.76977 14.6263 6.7238C14.6043 6.6976 14.5878 6.66742 14.5778 6.635C14.5679 6.60258 14.5647 6.56857 14.5684 6.53494C14.5721 6.50131 14.5827 6.46874 14.5995 6.4391C14.6164 6.40947 14.6391 6.38337 14.6664 6.36232C14.6909 6.34057 14.7195 6.32373 14.7507 6.31275C14.7819 6.30176 14.8151 6.29686 14.8482 6.29832C14.8814 6.29977 14.9139 6.30756 14.944 6.32124C14.974 6.33491 15.001 6.3542 15.0233 6.378C15.1543 6.50721 15.2769 6.64463 15.3964 6.78429C16.2759 7.81198 16.9434 8.9502 17.2316 10.2654C17.4791 11.3984 17.4213 12.5105 16.9434 13.586C16.9326 13.6114 16.9264 13.639 16.9102 13.692C17.086 13.6174 17.2363 13.5516 17.392 13.4964C18.1258 13.2365 18.8018 13.571 18.9706 14.2753C19.0237 14.4964 19.0046 14.7279 18.9159 14.938C18.8273 15.1481 18.6734 15.3263 18.4757 15.4479L13.5642 18.4645C13.1392 18.7358 12.6555 18.9088 12.1505 18.9701C12.1216 18.9763 12.0934 18.9856 12.0665 18.9978L7.35231 19ZM3.82821 12.45C3.82821 12.6845 3.82821 12.8981 3.82821 13.1162C3.82821 13.3343 3.71953 13.4545 3.54379 13.4486C3.36804 13.4426 3.28557 13.3291 3.2848 13.1147C3.2848 12.6927 3.2848 12.2715 3.2848 11.8495C3.2848 11.6008 3.20309 11.5202 2.95181 11.5194C2.59211 11.5194 2.22957 11.5194 1.86421 11.5194C1.63297 11.5194 1.54665 11.5986 1.54665 11.8241C1.54665 13.8272 1.54665 15.8298 1.54665 17.8319C1.54665 18.0522 1.62373 18.1262 1.85496 18.1307C2.21185 18.1307 2.56795 18.1307 2.92483 18.1307C3.21851 18.1307 3.28788 18.0634 3.28865 17.7811V14.8683C3.28865 14.719 3.2848 14.5756 3.28865 14.4292C3.28677 14.3612 3.31254 14.2952 3.36042 14.2455C3.40829 14.1957 3.47443 14.1662 3.54456 14.1633C3.61485 14.1621 3.683 14.1868 3.73522 14.2324C3.78745 14.278 3.81986 14.3412 3.8259 14.409C3.82975 14.4617 3.82975 14.5147 3.8259 14.5674C3.8259 15.4106 3.8259 16.2538 3.8259 17.097C3.81782 17.1468 3.82967 17.1978 3.85904 17.2394C3.8884 17.281 3.93307 17.3102 3.98391 17.3211C4.85646 17.6295 5.72669 17.9462 6.59615 18.2621C6.9501 18.3986 7.32674 18.4715 7.70765 18.4772C9.0437 18.4742 10.3798 18.4742 11.7158 18.4772C12.2387 18.483 12.7521 18.3422 13.1942 18.0716C14.8581 17.0529 16.521 16.0322 18.1828 15.0095C18.3021 14.9372 18.3909 14.826 18.4333 14.696C18.4756 14.566 18.4688 14.4256 18.4141 14.3C18.3675 14.171 18.2721 14.0639 18.1472 14.0004C18.0223 13.9368 17.8772 13.9217 17.7411 13.9579C17.6186 13.9884 17.4991 14.0296 17.3843 14.0812C15.799 14.7548 14.2135 15.4292 12.6277 16.1044C12.5121 16.1522 12.388 16.1776 12.2623 16.1791C11.3258 16.1858 10.3893 16.1836 9.45274 16.1791C9.37566 16.1791 9.27314 16.1896 9.22612 16.1477C9.1445 16.0799 9.08793 15.9881 9.06502 15.8863C9.04729 15.7653 9.1421 15.6839 9.27237 15.6623C9.33217 15.6549 9.3925 15.6524 9.45274 15.6548H11.9193C11.9833 15.6548 12.048 15.6496 12.1343 15.6458V15.2836C12.1401 15.0083 12.0403 14.7408 11.8542 14.5327C11.6681 14.3247 11.4089 14.1909 11.1269 14.1573C10.3661 14.0677 9.60458 13.9729 8.84072 13.9079C8.0599 13.8422 7.31531 13.6838 6.64086 13.2775C6.45201 13.1633 6.25546 13.0647 6.05428 12.9646C5.36847 12.6151 4.60301 12.4381 3.82821 12.45ZM8.76518 1.68023C8.7991 1.85275 8.79833 2.00586 8.85999 2.12835C9.08429 2.58617 9.33172 3.0328 9.56527 3.48689C9.62925 3.61087 9.73177 3.6512 9.8628 3.67883C10.6461 3.83735 11.457 3.81535 12.2299 3.6146C12.275 3.60295 12.3145 3.57657 12.3417 3.53992C12.65 3.07985 12.9545 2.61381 13.121 2.08129C13.1565 1.93895 13.184 1.79484 13.2034 1.64961C12.7533 1.88561 12.3833 1.81242 12.0249 1.58313C11.9602 1.5432 11.8842 1.52376 11.8076 1.52751C11.7309 1.53125 11.6574 1.558 11.5971 1.60405C11.1901 1.87142 10.7854 1.8662 10.3792 1.60853C10.1996 1.495 10.0293 1.5189 9.85586 1.62795C9.59533 1.79226 9.3163 1.85649 9.01184 1.75342C8.94555 1.73699 8.87772 1.71682 8.76518 1.68023ZM10.8941 5.10833C11.3736 5.03365 11.8569 4.97315 12.3348 4.88427C12.566 4.84245 12.6647 4.6408 12.6053 4.40927C12.5529 4.20388 12.4003 4.12098 12.1644 4.16355C11.9285 4.20612 11.715 4.24795 11.4884 4.27782C10.8462 4.35054 10.1958 4.31031 9.56836 4.15907C9.49286 4.1348 9.4106 4.13975 9.33878 4.17288C9.26696 4.206 9.21113 4.26474 9.18296 4.33682C9.06734 4.58403 9.18296 4.84469 9.45505 4.89324C9.92755 4.97912 10.4047 5.03738 10.8941 5.10833Z" fill="#6E767D" stroke="#6E767D" stroke-width="0.6"/>
<path d="M10.9356 9.56519V9.58482C10.9298 9.57216 10.9234 9.55952 10.9163 9.54695C10.8832 9.48862 10.8414 9.44191 10.7945 9.40432L10.9752 9.45573V9.41007C10.9898 9.43805 11.0073 9.46448 11.0272 9.48896C11.0616 9.53112 11.1028 9.56669 11.1488 9.59445L10.9356 9.56519ZM10.924 7.36644L10.8314 7.37707L10.924 7.34552V7.36644Z" fill="#6E767D" stroke="#6E767D" stroke-width="0.6"/>
</svg>
