<svg width="144" height="144" xmlns="http://www.w3.org/2000/svg" data-name="Layer 1">

 <g>
  <rect width="100%" height="100%" fill="#ffffff"/>
  <path stroke="null" id="svg_1" d="m100.44806,29.7718l-19.64861,29.17264a2.08889,2.08889 0 0 0 3.10069,2.74167l19.34181,-16.76333a0.78333,0.78333 0 0 1 1.30556,0.59403l0,52.5225a0.78333,0.78333 0 0 1 -1.38389,0.50264l-58.46278,-69.99736a10.02014,10.02014 0 0 0 -7.64403,-3.54458l-2.04319,0a10.01361,10.01361 0 0 0 -10.01361,10.01361l0,73.97278a10.01361,10.01361 0 0 0 10.01361,10.01361l0,0a10.02014,10.02014 0 0 0 8.53833,-4.77181l19.64861,-29.17264a2.08889,2.08889 0 0 0 -3.10069,-2.74167l-19.34181,16.76333a0.78333,0.78333 0 0 1 -1.30556,-0.59403l0,-52.5225a0.78333,0.78333 0 0 1 1.38389,-0.50264l58.45625,69.99736a10.02014,10.02014 0 0 0 7.65056,3.54458l2.04319,0a10.01361,10.01361 0 0 0 10.01361,-10.01361l0,-73.97278a10.01361,10.01361 0 0 0 -10.01361,-10.01361l0,0a10.02014,10.02014 0 0 0 -8.53833,4.77181z"/>
 </g>
</svg>