<svg width="24" height="24" viewBox="0 0 24 24" fill="none" xmlns="http://www.w3.org/2000/svg">
<circle cx="12" cy="12.0385" r="8" fill="white"/>
<path d="M14.4211 8.44456L12.7489 10.9273C12.7251 10.9631 12.715 11.0063 12.7206 11.0489C12.7261 11.0915 12.7469 11.1306 12.7791 11.1591C12.8113 11.1875 12.8527 11.2034 12.8956 11.2037C12.9386 11.204 12.9802 11.1887 13.0128 11.1607L14.6589 9.7329C14.6685 9.72427 14.6805 9.71863 14.6933 9.71668C14.7061 9.71473 14.7192 9.71654 14.7309 9.7219C14.7427 9.72726 14.7527 9.73594 14.7596 9.74687C14.7666 9.7578 14.7702 9.77051 14.77 9.78345V14.2535C14.77 14.2671 14.7658 14.2805 14.7579 14.2917C14.7501 14.3029 14.739 14.3114 14.7261 14.3161C14.7132 14.3208 14.6992 14.3214 14.686 14.3178C14.6728 14.3143 14.661 14.3067 14.6522 14.2962L9.67667 8.34012C9.59664 8.24562 9.49698 8.16968 9.38464 8.11758C9.27229 8.06549 9.14995 8.03848 9.02611 8.03845H8.85222C8.6262 8.03845 8.40943 8.12824 8.24961 8.28806C8.08979 8.44788 8 8.66465 8 8.89067V15.1862C8 15.4123 8.08979 15.629 8.24961 15.7888C8.40943 15.9487 8.6262 16.0385 8.85222 16.0385V16.0385C8.99795 16.0385 9.14126 16.0012 9.26848 15.9301C9.39569 15.859 9.50256 15.7565 9.57889 15.6323L11.2511 13.1496C11.2749 13.1138 11.285 13.0706 11.2794 13.028C11.2739 12.9854 11.2531 12.9463 11.2209 12.9178C11.1887 12.8894 11.1473 12.8735 11.1044 12.8732C11.0614 12.8729 11.0198 12.8882 10.9872 12.9162L9.34111 14.344C9.33146 14.3526 9.31951 14.3583 9.30672 14.3602C9.29392 14.3622 9.28083 14.3604 9.26905 14.355C9.25727 14.3496 9.2473 14.341 9.24037 14.33C9.23343 14.3191 9.22983 14.3064 9.23 14.2935V9.82234C9.23001 9.80866 9.23422 9.7953 9.24208 9.7841C9.24993 9.77289 9.26105 9.76438 9.27391 9.7597C9.28677 9.75503 9.30076 9.75443 9.31397 9.75799C9.32719 9.76154 9.33899 9.76907 9.34778 9.77956L14.3228 15.7368C14.4028 15.8313 14.5025 15.9072 14.6148 15.9593C14.7272 16.0114 14.8495 16.0384 14.9733 16.0385H15.1472C15.2592 16.0385 15.3701 16.0165 15.4735 15.9737C15.577 15.9309 15.671 15.8682 15.7502 15.789C15.8294 15.7099 15.8922 15.6159 15.9351 15.5125C15.9779 15.4091 16 15.2982 16 15.1862V8.89067C16 8.66465 15.9102 8.44788 15.7504 8.28806C15.5906 8.12824 15.3738 8.03845 15.1478 8.03845C15.002 8.03841 14.8587 8.07572 14.7315 8.14682C14.6043 8.21791 14.4974 8.32042 14.4211 8.44456V8.44456Z" fill="#202020"/>
</svg>
