<svg width="36" height="36" viewBox="0 0 36 36" fill="none" xmlns="http://www.w3.org/2000/svg">
<circle cx="18" cy="18" r="16.5" fill="white" stroke="black" stroke-width="3"/>
<path d="M22.2369 11.7107L19.3106 16.0556C19.2689 16.1181 19.2513 16.1937 19.261 16.2682C19.2707 16.3428 19.3071 16.4113 19.3634 16.4611C19.4197 16.5109 19.4922 16.5386 19.5674 16.5391C19.6425 16.5396 19.7154 16.5129 19.7724 16.4639L22.6531 13.9653C22.6699 13.9502 22.6909 13.9403 22.7132 13.9369C22.7356 13.9335 22.7585 13.9367 22.7792 13.946C22.7998 13.9554 22.8172 13.9706 22.8294 13.9897C22.8415 14.0089 22.8478 14.0311 22.8475 14.0538V21.8762C22.8475 21.9002 22.8401 21.9236 22.8264 21.9432C22.8126 21.9628 22.7932 21.9777 22.7707 21.9859C22.7482 21.994 22.7237 21.9951 22.7005 21.9889C22.6774 21.9827 22.6568 21.9695 22.6414 21.9511L13.9342 11.5279C13.7941 11.3625 13.6197 11.2296 13.4231 11.1385C13.2265 11.0473 13.0124 11.0001 12.7957 11H12.4914C12.0958 11 11.7165 11.1571 11.4368 11.4368C11.1571 11.7165 11 12.0958 11 12.4914V23.5086C11 23.9042 11.1571 24.2835 11.4368 24.5632C11.7165 24.8429 12.0958 25 12.4914 25V25C12.7464 25.0001 12.9972 24.9348 13.2198 24.8104C13.4425 24.6859 13.6295 24.5066 13.7631 24.2893L16.6894 19.9444C16.7311 19.8819 16.7487 19.8063 16.739 19.7318C16.7293 19.6572 16.6929 19.5887 16.6366 19.5389C16.5803 19.4891 16.5078 19.4614 16.4326 19.4609C16.3575 19.4604 16.2846 19.4871 16.2276 19.5361L13.3469 22.0347C13.3301 22.0498 13.3091 22.0597 13.2868 22.0631C13.2644 22.0665 13.2415 22.0633 13.2208 22.054C13.2002 22.0446 13.1828 22.0294 13.1706 22.0103C13.1585 21.9911 13.1522 21.9689 13.1525 21.9462V14.1218C13.1525 14.0979 13.1599 14.0745 13.1736 14.0549C13.1874 14.0353 13.2068 14.0204 13.2293 14.0122C13.2518 14.004 13.2763 14.003 13.2995 14.0092C13.3226 14.0154 13.3432 14.0286 13.3586 14.0469L22.0649 24.4721C22.2049 24.6375 22.3793 24.7704 22.5759 24.8615C22.7725 24.9527 22.9866 24.9999 23.2033 25H23.5076C23.7036 25.0001 23.8976 24.9616 24.0787 24.8868C24.2597 24.8119 24.4242 24.702 24.5628 24.5635C24.7014 24.425 24.8114 24.2606 24.8864 24.0796C24.9614 23.8986 25 23.7045 25 23.5086V12.4914C25 12.0958 24.8429 11.7165 24.5632 11.4368C24.2835 11.1571 23.9042 11 23.5086 11C23.2536 10.9999 23.0028 11.0652 22.7802 11.1896C22.5575 11.3141 22.3705 11.4934 22.2369 11.7107V11.7107Z" fill="#202020"/>
</svg>
