<svg width="18" height="18" viewBox="0 0 18 18" fill="none" xmlns="http://www.w3.org/2000/svg">
<circle cx="9" cy="9" r="9" fill="black"/>
<circle cx="9" cy="9.00001" r="8.30769" fill="white"/>
<path d="M12.0264 4.50764L9.93611 7.61111C9.90634 7.65581 9.89376 7.70977 9.9007 7.76302C9.90764 7.81627 9.93363 7.86521 9.97386 7.90078C10.0141 7.93635 10.0658 7.95616 10.1195 7.95652C10.1732 7.95689 10.2253 7.9378 10.266 7.90278L12.3236 6.11806C12.3357 6.10727 12.3506 6.10022 12.3666 6.09778C12.3826 6.09534 12.399 6.09761 12.4137 6.10431C12.4284 6.11101 12.4409 6.12186 12.4495 6.13552C12.4582 6.14918 12.4627 6.16507 12.4625 6.18125V11.7687C12.4625 11.7859 12.4572 11.8025 12.4474 11.8166C12.4376 11.8306 12.4237 11.8412 12.4076 11.847C12.3915 11.8529 12.3741 11.8536 12.3575 11.8492C12.341 11.8448 12.3263 11.8353 12.3153 11.8222L6.09583 4.37708C5.9958 4.25895 5.87123 4.16403 5.7308 4.09891C5.59037 4.03379 5.43744 4.00004 5.28264 4H5.06528C4.78275 4 4.51179 4.11223 4.31201 4.31201C4.11223 4.51179 4 4.78275 4 5.06528V12.9347C4 13.2173 4.11223 13.4882 4.31201 13.688C4.51179 13.8878 4.78275 14 5.06528 14V14C5.24744 14 5.42658 13.9534 5.58559 13.8645C5.74461 13.7757 5.8782 13.6475 5.97361 13.4924L8.06389 10.3889C8.09366 10.3442 8.10624 10.2902 8.0993 10.237C8.09236 10.1837 8.06637 10.1348 8.02614 10.0992C7.98591 10.0636 7.93416 10.0438 7.88046 10.0435C7.82676 10.0431 7.77474 10.0622 7.73403 10.0972L5.67639 11.8819C5.66433 11.8927 5.64939 11.8998 5.6334 11.9022C5.6174 11.9047 5.60104 11.9024 5.58631 11.8957C5.57159 11.889 5.55913 11.8781 5.55046 11.8645C5.54179 11.8508 5.53729 11.8349 5.5375 11.8187V6.22986C5.53751 6.21276 5.54278 6.19607 5.5526 6.18206C5.56241 6.16805 5.57631 6.15741 5.59238 6.15157C5.60846 6.14573 5.62595 6.14498 5.64247 6.14942C5.65899 6.15386 5.67374 6.16327 5.68472 6.17639L11.9035 13.6229C12.0035 13.741 12.1281 13.836 12.2685 13.9011C12.4089 13.9662 12.5619 14 12.7167 14H12.934C13.074 14.0001 13.2126 13.9726 13.3419 13.9191C13.4712 13.8656 13.5887 13.7872 13.6877 13.6882C13.7867 13.5893 13.8653 13.4718 13.9188 13.3425C13.9724 13.2133 14 13.0747 14 12.9347V5.06528C14 4.78275 13.8878 4.51179 13.688 4.31201C13.4882 4.11223 13.2173 4 12.9347 4C12.7526 3.99995 12.5734 4.04659 12.4144 4.13546C12.2554 4.22433 12.1218 4.35246 12.0264 4.50764V4.50764Z" fill="#202020"/>
</svg>
