<svg width="16" height="17" viewBox="0 0 16 17" fill="none" xmlns="http://www.w3.org/2000/svg">
<path d="M12.8422 1.31222L9.49778 6.27778C9.45014 6.34929 9.43002 6.43563 9.44112 6.52083C9.45222 6.60603 9.49381 6.68434 9.55817 6.74125C9.62254 6.79817 9.70535 6.82985 9.79127 6.83044C9.87719 6.83102 9.96041 6.80047 10.0256 6.74444L13.3178 3.88889C13.3371 3.87163 13.361 3.86036 13.3866 3.85645C13.4122 3.85255 13.4383 3.85618 13.4619 3.8669C13.4855 3.87762 13.5054 3.89497 13.5193 3.91683C13.5331 3.93869 13.5403 3.96411 13.54 3.99V12.93C13.54 12.9574 13.5316 12.9841 13.5158 13.0065C13.5001 13.0289 13.4779 13.0459 13.4522 13.0553C13.4265 13.0646 13.3985 13.0658 13.3721 13.0587C13.3456 13.0516 13.322 13.0365 13.3044 13.0156L3.35333 1.10333C3.19327 0.914328 2.99397 0.76245 2.76928 0.658259C2.54458 0.554068 2.2999 0.500063 2.05222 0.5H1.70444C1.2524 0.5 0.818865 0.679575 0.49922 0.99922C0.179575 1.31887 0 1.7524 0 2.20444V14.7956C0 15.2476 0.179575 15.6811 0.49922 16.0008C0.818865 16.3204 1.2524 16.5 1.70444 16.5V16.5C1.99591 16.5001 2.28253 16.4255 2.53695 16.2833C2.79137 16.1411 3.00512 15.9361 3.15778 15.6878L6.50222 10.7222C6.54986 10.6507 6.56998 10.5644 6.55888 10.4792C6.54778 10.394 6.50619 10.3157 6.44182 10.2587C6.37746 10.2018 6.29465 10.1701 6.20873 10.1696C6.12281 10.169 6.03958 10.1995 5.97444 10.2556L2.68222 13.1111C2.66293 13.1284 2.63903 13.1396 2.61343 13.1435C2.58784 13.1475 2.56167 13.1438 2.5381 13.1331C2.51454 13.1224 2.49461 13.105 2.48074 13.0832C2.46687 13.0613 2.45966 13.0359 2.46 13.01V4.06778C2.46001 4.04041 2.46844 4.01371 2.48415 3.99129C2.49986 3.96888 2.52209 3.95185 2.54782 3.9425C2.57354 3.93316 2.60152 3.93196 2.62795 3.93907C2.65438 3.94617 2.67798 3.96124 2.69556 3.98222L12.6456 15.8967C12.8056 16.0857 13.0049 16.2375 13.2296 16.3417C13.4543 16.4459 13.699 16.4999 13.9467 16.5H14.2944C14.5184 16.5001 14.7401 16.4562 14.947 16.3706C15.154 16.285 15.342 16.1595 15.5004 16.0012C15.6588 15.8429 15.7844 15.6549 15.8702 15.4481C15.9559 15.2412 16 15.0195 16 14.7956V2.20444C16 1.7524 15.8204 1.31887 15.5008 0.99922C15.1811 0.679575 14.7476 0.5 14.2956 0.5C14.0041 0.499923 13.7175 0.574541 13.463 0.716731C13.2086 0.858921 12.9949 1.06394 12.8422 1.31222V1.31222Z" fill="white"/>
</svg>
