<svg width="35" height="35" viewBox="0 0 35 35" fill="none" xmlns="http://www.w3.org/2000/svg">
<circle cx="17.5" cy="17.5" r="17.5" fill="white"/>
<path d="M22.4431 10.1625L19.029 15.2315C18.9804 15.3045 18.9598 15.3926 18.9712 15.4796C18.9825 15.5666 19.0249 15.6465 19.0906 15.7046C19.1564 15.7627 19.2409 15.7951 19.3286 15.7957C19.4163 15.7963 19.5013 15.7651 19.5678 15.7079L22.9286 12.7928C22.9483 12.7752 22.9727 12.7637 22.9988 12.7597C23.0249 12.7557 23.0516 12.7594 23.0757 12.7704C23.0998 12.7813 23.1201 12.799 23.1343 12.8214C23.1484 12.8437 23.1558 12.8696 23.1554 12.8961V22.0223C23.1554 22.0502 23.1468 22.0775 23.1308 22.1004C23.1147 22.1233 23.092 22.1406 23.0658 22.1502C23.0395 22.1597 23.011 22.1609 22.984 22.1537C22.957 22.1464 22.9329 22.1311 22.915 22.1096L12.7565 9.94925C12.5931 9.7563 12.3897 9.60126 12.1603 9.4949C11.9309 9.38854 11.6812 9.33341 11.4283 9.33334H11.0733C10.6118 9.33334 10.1693 9.51666 9.84296 9.84296C9.51666 10.1693 9.33334 10.6118 9.33334 11.0733V23.9267C9.33334 24.3882 9.51666 24.8308 9.84296 25.1571C10.1693 25.4834 10.6118 25.6667 11.0733 25.6667V25.6667C11.3708 25.6668 11.6634 25.5906 11.9231 25.4454C12.1829 25.3003 12.4011 25.091 12.5569 24.8375L15.971 19.7685C16.0197 19.6955 16.0402 19.6074 16.0289 19.5204C16.0175 19.4334 15.9751 19.3535 15.9094 19.2954C15.8437 19.2373 15.7591 19.205 15.6714 19.2044C15.5837 19.2038 15.4988 19.2349 15.4323 19.2921L12.0714 22.2072C12.0517 22.2248 12.0273 22.2363 12.0012 22.2403C11.9751 22.2443 11.9484 22.2406 11.9243 22.2296C11.9003 22.2187 11.8799 22.201 11.8658 22.1787C11.8516 22.1563 11.8442 22.1304 11.8446 22.104V12.9755C11.8446 12.9475 11.8532 12.9203 11.8692 12.8974C11.8853 12.8745 11.908 12.8571 11.9342 12.8476C11.9605 12.838 11.9891 12.8368 12.016 12.8441C12.043 12.8513 12.0671 12.8667 12.0851 12.8881L22.2423 25.0508C22.4057 25.2437 22.6092 25.3988 22.8386 25.5051C23.0679 25.6115 23.3177 25.6666 23.5706 25.6667H23.9256C24.1542 25.6668 24.3806 25.6219 24.5918 25.5346C24.803 25.4472 24.995 25.319 25.1567 25.1575C25.3183 24.9959 25.4466 24.804 25.5341 24.5928C25.6216 24.3817 25.6667 24.1553 25.6667 23.9267V11.0733C25.6667 10.6118 25.4834 10.1693 25.1571 9.84296C24.8308 9.51666 24.3882 9.33334 23.9267 9.33334C23.6292 9.33327 23.3366 9.40944 23.0769 9.55459C22.8171 9.69974 22.599 9.90903 22.4431 10.1625V10.1625Z" fill="#202020"/>
</svg>
